<mxfile host="app.diagrams.net" modified="2022-07-28T10:28:48.666Z" agent="5.0 (Macintosh; Intel Mac OS X 10_15_7) AppleWebKit/537.36 (KHTML, like Gecko) Chrome/103.0.0.0 Safari/537.36" etag="VsX21sJR7nBLPmn1x-_H" version="20.2.0" type="github">
  <diagram id="w0403fBSO4ZVD5nSPQlh" name="第 1 页">
    <mxGraphModel dx="1412" dy="698" grid="1" gridSize="10" guides="1" tooltips="1" connect="1" arrows="1" fold="1" page="1" pageScale="1" pageWidth="827" pageHeight="1169" math="0" shadow="0">
      <root>
        <mxCell id="0" />
        <mxCell id="1" parent="0" />
        <mxCell id="2cQzLXGR86g6uBBES96R-3" value="" style="edgeStyle=orthogonalEdgeStyle;rounded=0;orthogonalLoop=1;jettySize=auto;html=1;" edge="1" parent="1" source="2cQzLXGR86g6uBBES96R-1" target="2cQzLXGR86g6uBBES96R-2">
          <mxGeometry relative="1" as="geometry" />
        </mxCell>
        <mxCell id="2cQzLXGR86g6uBBES96R-1" value="选择设备" style="rounded=1;whiteSpace=wrap;html=1;" vertex="1" parent="1">
          <mxGeometry x="294" y="70" width="120" height="60" as="geometry" />
        </mxCell>
        <mxCell id="2cQzLXGR86g6uBBES96R-5" value="" style="edgeStyle=orthogonalEdgeStyle;rounded=0;orthogonalLoop=1;jettySize=auto;html=1;" edge="1" parent="1" source="2cQzLXGR86g6uBBES96R-2" target="2cQzLXGR86g6uBBES96R-4">
          <mxGeometry relative="1" as="geometry" />
        </mxCell>
        <mxCell id="2cQzLXGR86g6uBBES96R-2" value="创建任务" style="whiteSpace=wrap;html=1;rounded=1;" vertex="1" parent="1">
          <mxGeometry x="294" y="210" width="120" height="60" as="geometry" />
        </mxCell>
        <mxCell id="2cQzLXGR86g6uBBES96R-7" value="" style="edgeStyle=orthogonalEdgeStyle;rounded=0;orthogonalLoop=1;jettySize=auto;html=1;" edge="1" parent="1" source="2cQzLXGR86g6uBBES96R-4" target="2cQzLXGR86g6uBBES96R-6">
          <mxGeometry relative="1" as="geometry" />
        </mxCell>
        <mxCell id="2cQzLXGR86g6uBBES96R-4" value="配置任务执行策略" style="whiteSpace=wrap;html=1;rounded=1;" vertex="1" parent="1">
          <mxGeometry x="294" y="350" width="120" height="60" as="geometry" />
        </mxCell>
        <mxCell id="2cQzLXGR86g6uBBES96R-9" value="" style="edgeStyle=orthogonalEdgeStyle;rounded=0;orthogonalLoop=1;jettySize=auto;html=1;" edge="1" parent="1" source="2cQzLXGR86g6uBBES96R-6" target="2cQzLXGR86g6uBBES96R-8">
          <mxGeometry relative="1" as="geometry" />
        </mxCell>
        <mxCell id="2cQzLXGR86g6uBBES96R-12" value="任务状态更新" style="edgeLabel;html=1;align=center;verticalAlign=middle;resizable=0;points=[];" vertex="1" connectable="0" parent="2cQzLXGR86g6uBBES96R-9">
          <mxGeometry x="-0.025" y="1" relative="1" as="geometry">
            <mxPoint as="offset" />
          </mxGeometry>
        </mxCell>
        <mxCell id="2cQzLXGR86g6uBBES96R-11" value="" style="edgeStyle=orthogonalEdgeStyle;rounded=0;orthogonalLoop=1;jettySize=auto;html=1;" edge="1" parent="1" source="2cQzLXGR86g6uBBES96R-6" target="2cQzLXGR86g6uBBES96R-10">
          <mxGeometry relative="1" as="geometry" />
        </mxCell>
        <mxCell id="2cQzLXGR86g6uBBES96R-6" value="根据配置策略动态&lt;br&gt;生成任务执行记录" style="whiteSpace=wrap;html=1;rounded=1;" vertex="1" parent="1">
          <mxGeometry x="294" y="490" width="120" height="60" as="geometry" />
        </mxCell>
        <mxCell id="2cQzLXGR86g6uBBES96R-8" value="推送任务状态&lt;br&gt;到web端" style="whiteSpace=wrap;html=1;rounded=1;" vertex="1" parent="1">
          <mxGeometry x="550" y="490" width="120" height="60" as="geometry" />
        </mxCell>
        <mxCell id="2cQzLXGR86g6uBBES96R-10" value="写入测点告警记录" style="whiteSpace=wrap;html=1;rounded=1;" vertex="1" parent="1">
          <mxGeometry x="294" y="630" width="120" height="60" as="geometry" />
        </mxCell>
      </root>
    </mxGraphModel>
  </diagram>
</mxfile>
